<svg xmlns="http://www.w3.org/2000/svg" width="8.5in" height="11in" viewBox="0 0 850 1100">
  <title>Lantern Bugs at Dusk</title>
  <rect width="850" height="1100" fill="#ffffff"/>
  <g fill="#ffffff" stroke="#000000" stroke-width="8" stroke-linejoin="round" stroke-linecap="round" stroke-miterlimit="4">
  <g stroke-width="8">
    <path d="M112,984C112,984 164.17,926.58 216.33,918C268.5,909.42 355.44,932.52 425,932.52C494.56,932.52 581.5,909.42 633.67,918C685.83,926.58 738,984 738,984C738,984 112,984 112,984Z"/>
  </g>
  <g stroke-width="8">
    <path d="M133.8,940C127.66,923.8 110.88,832 110.88,832C110.88,832 148.36,923.8 151.8,940C155.24,956.2 139.94,956.2 133.8,940Z"/>
    <path d="M149,940C147.65,917.5 158,790 158,790C158,790 168.35,917.5 167,940C165.65,962.5 150.35,962.5 149,940Z"/>
    <path d="M164.2,940C167.64,923.8 205.12,832 205.12,832C205.12,832 188.34,923.8 182.2,940C176.06,956.2 160.76,956.2 164.2,940Z"/>
    <path d="M207,940C199.98,919.05 178.2,800.32 178.2,800.32C178.2,800.32 220.68,919.05 225,940C229.32,960.95 214.02,960.95 207,940Z"/>
    <path d="M225,940C223.65,910.9 234,746 234,746C234,746 244.35,910.9 243,940C241.65,969.1 226.35,969.1 225,940Z"/>
    <path d="M243,940C247.32,919.05 289.8,800.32 289.8,800.32C289.8,800.32 268.02,919.05 261,940C253.98,960.95 238.68,960.95 243,940Z"/>
    <path d="M280.2,940C272.3,914.3 245.52,768.64 245.52,768.64C245.52,768.64 293,914.3 298.2,940C303.4,965.7 288.1,965.7 280.2,940Z"/>
    <path d="M301,940C299.65,904.3 310,702 310,702C310,702 320.35,904.3 319,940C317.65,975.7 302.35,975.7 301,940Z"/>
    <path d="M321.8,940C327,914.3 374.48,768.64 374.48,768.64C374.48,768.64 347.7,914.3 339.8,940C331.9,965.7 316.6,965.7 321.8,940Z"/>
    <path d="M361.8,940C355.66,909.54 338.88,736.96 338.88,736.96C338.88,736.96 376.36,909.54 379.8,940C383.24,970.46 367.94,970.46 361.8,940Z"/>
    <path d="M377,940C375.65,897.7 386,658 386,658C386,658 396.35,897.7 395,940C393.65,982.3 378.35,982.3 377,940Z"/>
    <path d="M392.2,940C395.64,909.54 433.12,736.96 433.12,736.96C433.12,736.96 416.34,909.54 410.2,940C404.06,970.46 388.76,970.46 392.2,940Z"/>
    <path d="M435,940C427.98,923.8 406.2,832 406.2,832C406.2,832 448.68,923.8 453,940C457.32,956.2 442.02,956.2 435,940Z"/>
    <path d="M453,940C451.65,917.5 462,790 462,790C462,790 472.35,917.5 471,940C469.65,962.5 454.35,962.5 453,940Z"/>
    <path d="M471,940C475.32,923.8 517.8,832 517.8,832C517.8,832 496.02,923.8 489,940C481.98,956.2 466.68,956.2 471,940Z"/>
    <path d="M508.2,940C500.3,919.05 473.52,800.32 473.52,800.32C473.52,800.32 521,919.05 526.2,940C531.4,960.95 516.1,960.95 508.2,940Z"/>
    <path d="M529,940C527.65,910.9 538,746 538,746C538,746 548.35,910.9 547,940C545.65,969.1 530.35,969.1 529,940Z"/>
    <path d="M549.8,940C555,919.05 602.48,800.32 602.48,800.32C602.48,800.32 575.7,919.05 567.8,940C559.9,960.95 544.6,960.95 549.8,940Z"/>
    <path d="M589.8,940C583.66,914.3 566.88,768.64 566.88,768.64C566.88,768.64 604.36,914.3 607.8,940C611.24,965.7 595.94,965.7 589.8,940Z"/>
    <path d="M605,940C603.65,904.3 614,702 614,702C614,702 624.35,904.3 623,940C621.65,975.7 606.35,975.7 605,940Z"/>
    <path d="M620.2,940C623.64,914.3 661.12,768.64 661.12,768.64C661.12,768.64 644.34,914.3 638.2,940C632.06,965.7 616.76,965.7 620.2,940Z"/>
    <path d="M663,940C655.98,909.54 634.2,736.96 634.2,736.96C634.2,736.96 676.68,909.54 681,940C685.32,970.46 670.02,970.46 663,940Z"/>
    <path d="M681,940C679.65,897.7 690,658 690,658C690,658 700.35,897.7 699,940C697.65,982.3 682.35,982.3 681,940Z"/>
    <path d="M699,940C703.32,909.54 745.8,736.96 745.8,736.96C745.8,736.96 724.02,909.54 717,940C709.98,970.46 694.68,970.46 699,940Z"/>
  </g>
  <g stroke-width="8">
    <path d="M272,306C264.5,292.5 206.5,255.4 190,256C173.5,256.6 154.5,296.5 162,310C169.5,323.5 223.5,346.6 240,346C256.5,345.4 279.5,319.5 272,306Z"/>
    <path d="M280,310C281.5,295.6 318.7,251.9 334,248C349.3,244.1 383.5,269.6 382,284C380.5,298.4 339.3,340.1 324,344C308.7,347.9 278.5,324.4 280,310Z"/>
    <circle cx="286" cy="310" r="15"/>
    <circle cx="286" cy="294" r="26"/>
    <path d="M246,326C246,326 326,326 326,326C326,326 330,352 330,352C330,352 242,352 242,352C242,352 246,326 246,326Z"/>
    <path d="M226,346C244.42,336.37 327.58,336.37 346,346C364.42,355.63 364.5,398.98 356,414C347.5,429.02 305.83,452 286,452C266.17,452 224.5,429.02 216,414C207.5,398.98 207.58,355.63 226,346Z"/>
    <circle cx="216" cy="224" r="10"/>
    <circle cx="356" cy="224" r="10"/>
  </g>
  <g stroke-width="6" fill="none">
    <path d="M272,274C267.67,267.67 254.33,243.33 246,236C237.67,228.67 226,231 222,230"/>
    <path d="M300,274C304.33,267.67 317.67,243.33 326,236C334.33,228.67 346,231 350,230"/>
    <line x1="222" y1="386" x2="182" y2="380"/>
    <line x1="350" y1="386" x2="390" y2="380"/>
    <line x1="238" y1="436" x2="208" y2="462"/>
    <line x1="334" y1="436" x2="364" y2="462"/>
    <line x1="286" y1="460" x2="286" y2="494"/>
  </g>
  <g fill="#000000" stroke="none">
    <circle cx="276" cy="290" r="8"/>
    <circle cx="296" cy="290" r="8"/>
  </g>
  <g stroke-width="8">
    <path d="M594.04,422.76C600.49,411.15 650.37,379.24 664.56,379.76C678.75,380.28 695.09,414.59 688.64,426.2C682.19,437.81 635.75,457.68 621.56,457.16C607.37,456.64 587.59,434.37 594.04,422.76Z"/>
    <path d="M587.16,426.2C585.87,413.82 553.88,376.23 540.72,372.88C527.56,369.53 498.15,391.46 499.44,403.84C500.73,416.22 536.16,452.09 549.32,455.44C562.48,458.79 588.45,438.58 587.16,426.2Z"/>
    <circle cx="582" cy="426.2" r="12.9"/>
    <circle cx="582" cy="412.44" r="22.36"/>
    <path d="M616.4,439.96C616.4,439.96 547.6,439.96 547.6,439.96C547.6,439.96 544.16,462.32 544.16,462.32C544.16,462.32 619.84,462.32 619.84,462.32C619.84,462.32 616.4,439.96 616.4,439.96Z"/>
    <path d="M633.6,457.16C617.76,448.88 546.24,448.88 530.4,457.16C514.56,465.44 514.49,502.73 521.8,515.64C529.11,528.55 564.94,548.32 582,548.32C599.06,548.32 634.89,528.55 642.2,515.64C649.51,502.73 649.44,465.44 633.6,457.16Z"/>
    <circle cx="642.2" cy="352.24" r="8.6"/>
    <circle cx="521.8" cy="352.24" r="8.6"/>
  </g>
  <g stroke-width="6" fill="none">
    <path d="M594.04,395.24C597.77,389.79 609.23,368.87 616.4,362.56C623.57,356.25 633.6,358.26 637.04,357.4"/>
    <path d="M569.96,395.24C566.23,389.79 554.77,368.87 547.6,362.56C540.43,356.25 530.4,358.26 526.96,357.4"/>
    <line x1="637.04" y1="491.56" x2="671.44" y2="486.4"/>
    <line x1="526.96" y1="491.56" x2="492.56" y2="486.4"/>
    <line x1="623.28" y1="534.56" x2="649.08" y2="556.92"/>
    <line x1="540.72" y1="534.56" x2="514.92" y2="556.92"/>
    <line x1="582" y1="555.2" x2="582" y2="584.44"/>
  </g>
  <g fill="#000000" stroke="none">
    <circle cx="590.6" cy="409" r="6.88"/>
    <circle cx="573.4" cy="409" r="6.88"/>
  </g>
  <g stroke-width="8">
    <path d="M362.64,590.16C368.34,579.9 412.42,551.7 424.96,552.16C437.5,552.62 451.94,582.94 446.24,593.2C440.54,603.46 399.5,621.02 386.96,620.56C374.42,620.1 356.94,600.42 362.64,590.16Z"/>
    <path d="M356.56,593.2C355.42,582.26 327.15,549.04 315.52,546.08C303.89,543.12 277.9,562.5 279.04,573.44C280.18,584.38 311.49,616.08 323.12,619.04C334.75,622 357.7,604.14 356.56,593.2Z"/>
    <circle cx="352" cy="593.2" r="11.4"/>
    <circle cx="352" cy="581.04" r="19.76"/>
    <path d="M382.4,605.36C382.4,605.36 321.6,605.36 321.6,605.36C321.6,605.36 318.56,625.12 318.56,625.12C318.56,625.12 385.44,625.12 385.44,625.12C385.44,625.12 382.4,605.36 382.4,605.36Z"/>
    <path d="M397.6,620.56C383.6,613.24 320.4,613.24 306.4,620.56C292.4,627.88 292.34,660.83 298.8,672.24C305.26,683.65 336.93,701.12 352,701.12C367.07,701.12 398.74,683.65 405.2,672.24C411.66,660.83 411.6,627.88 397.6,620.56Z"/>
    <circle cx="405.2" cy="527.84" r="7.6"/>
    <circle cx="298.8" cy="527.84" r="7.6"/>
  </g>
  <g stroke-width="6" fill="none">
    <path d="M362.64,565.84C365.93,561.03 376.07,542.53 382.4,536.96C388.73,531.39 397.6,533.16 400.64,532.4"/>
    <path d="M341.36,565.84C338.07,561.03 327.93,542.53 321.6,536.96C315.27,531.39 306.4,533.16 303.36,532.4"/>
    <line x1="400.64" y1="650.96" x2="431.04" y2="646.4"/>
    <line x1="303.36" y1="650.96" x2="272.96" y2="646.4"/>
    <line x1="388.48" y1="688.96" x2="411.28" y2="708.72"/>
    <line x1="315.52" y1="688.96" x2="292.72" y2="708.72"/>
    <line x1="352" y1="707.2" x2="352" y2="733.04"/>
  </g>
  <g fill="#000000" stroke="none">
    <circle cx="359.6" cy="578" r="6.08"/>
    <circle cx="344.4" cy="578" r="6.08"/>
  </g>
  <g stroke-width="8">
    <path d="M610.76,703.56C605.81,694.65 567.53,670.16 556.64,670.56C545.75,670.96 533.21,697.29 538.16,706.2C543.11,715.11 578.75,730.36 589.64,729.96C600.53,729.56 615.71,712.47 610.76,703.56Z"/>
    <path d="M616.04,706.2C617.03,696.7 641.58,667.85 651.68,665.28C661.78,662.71 684.35,679.54 683.36,689.04C682.37,698.54 655.18,726.07 645.08,728.64C634.98,731.21 615.05,715.7 616.04,706.2Z"/>
    <circle cx="620" cy="706.2" r="9.9"/>
    <circle cx="620" cy="695.64" r="17.16"/>
    <path d="M593.6,716.76C593.6,716.76 646.4,716.76 646.4,716.76C646.4,716.76 649.04,733.92 649.04,733.92C649.04,733.92 590.96,733.92 590.96,733.92C590.96,733.92 593.6,716.76 593.6,716.76Z"/>
    <path d="M580.4,729.96C592.55,723.6 647.45,723.6 659.6,729.96C671.75,736.32 671.81,764.93 666.2,774.84C660.59,784.75 633.09,799.92 620,799.92C606.91,799.92 579.41,784.75 573.8,774.84C568.19,764.93 568.25,736.32 580.4,729.96Z"/>
    <circle cx="573.8" cy="649.44" r="6.6"/>
    <circle cx="666.2" cy="649.44" r="6.6"/>
  </g>
  <g stroke-width="6" fill="none">
    <path d="M610.76,682.44C607.9,678.26 599.1,662.2 593.6,657.36C588.1,652.52 580.4,654.06 577.76,653.4"/>
    <path d="M629.24,682.44C632.1,678.26 640.9,662.2 646.4,657.36C651.9,652.52 659.6,654.06 662.24,653.4"/>
    <line x1="577.76" y1="756.36" x2="551.36" y2="752.4"/>
    <line x1="662.24" y1="756.36" x2="688.64" y2="752.4"/>
    <line x1="588.32" y1="789.36" x2="568.52" y2="806.52"/>
    <line x1="651.68" y1="789.36" x2="671.48" y2="806.52"/>
    <line x1="620" y1="805.2" x2="620" y2="827.64"/>
  </g>
  <g fill="#000000" stroke="none">
    <circle cx="613.4" cy="693" r="5.28"/>
    <circle cx="626.6" cy="693" r="5.28"/>
  </g>
  <g stroke-width="8">
    <path d="M180,236 L186.88,252.53 L204.73,253.97 L191.13,265.62 L195.28,283.03 L180,273.7 L164.72,283.03 L168.87,265.62 L155.27,253.97 L173.12,252.53Z"/>
    <path d="M668,248 L673.29,260.72 L687.02,261.82 L676.56,270.78 L679.76,284.18 L668,277 L656.24,284.18 L659.44,270.78 L648.98,261.82 L662.71,260.72Z"/>
    <path d="M452,188 L457.82,201.99 L472.92,203.2 L461.42,213.06 L464.93,227.8 L452,219.9 L439.07,227.8 L442.58,213.06 L431.08,203.2 L446.18,201.99Z"/>
    <path d="M206,542 L210.76,553.45 L223.12,554.44 L213.7,562.5 L216.58,574.56 L206,568.1 L195.42,574.56 L198.3,562.5 L188.88,554.44 L201.24,553.45Z"/>
    <path d="M716,550 L720.23,560.18 L731.22,561.06 L722.85,568.22 L725.4,578.94 L716,573.2 L706.6,578.94 L709.15,568.22 L700.78,561.06 L711.77,560.18Z"/>
  </g>
  </g>
</svg>
