<svg xmlns="http://www.w3.org/2000/svg" width="8.5in" height="11in" viewBox="0 0 850 1100">
  <title>Sorrel Says Hello</title>
  <rect width="850" height="1100" fill="#ffffff"/>
  <g fill="#ffffff" stroke="#000000" stroke-width="8" stroke-linejoin="round" stroke-linecap="round" stroke-miterlimit="4">
  <g stroke-width="8">
    <path d="M107.06,271.68A34.59,34.59 0 0 1 161.24,232.93A44.35,44.35 0 0 1 230.44,231.45A38.14,38.14 0 0 1 282.11,232.27A41.69,41.69 0 0 1 353.31,271.68Z"/>
    <path d="M526.66,216.51A40.14,40.14 0 0 1 592.78,175.99A43.87,43.87 0 0 1 660.64,178.66A33.6,33.6 0 0 1 713,216.51Z"/>
  </g>
  <g stroke-width="8">
    <path d="M106,992C106,992 159.17,858.02 212.33,838C265.5,817.98 354.11,871.88 425,871.88C495.89,871.88 584.5,817.98 637.67,838C690.83,858.02 744,992 744,992C744,992 106,992 106,992Z"/>
  </g>
  <g stroke-width="8">
    <circle cx="184" cy="794.2" r="18.2"/>
    <circle cx="216.15" cy="817.56" r="18.2"/>
    <circle cx="203.87" cy="855.34" r="18.2"/>
    <circle cx="164.13" cy="855.34" r="18.2"/>
    <circle cx="151.85" cy="817.56" r="18.2"/>
    <circle cx="184" cy="828" r="16.12"/>
    <path d="M184,867C185.67,871.67 194,885.67 194,895C194,904.33 185.67,918.33 184,923"/>
    <circle cx="660" cy="588.6" r="26.6"/>
    <circle cx="706.98" cy="622.73" r="26.6"/>
    <circle cx="689.04" cy="677.97" r="26.6"/>
    <circle cx="630.96" cy="677.97" r="26.6"/>
    <circle cx="613.02" cy="622.73" r="26.6"/>
    <circle cx="660" cy="638" r="23.56"/>
    <path d="M660,695C661.67,712 670,763 670,797C670,831 661.67,882 660,899"/>
    <circle cx="624" cy="759.6" r="19.6"/>
    <circle cx="658.62" cy="784.75" r="19.6"/>
    <circle cx="645.4" cy="825.45" r="19.6"/>
    <circle cx="602.6" cy="825.45" r="19.6"/>
    <circle cx="589.38" cy="784.75" r="19.6"/>
    <circle cx="624" cy="796" r="17.36"/>
    <path d="M624,838C625.67,845 634,866 634,880C634,894 625.67,915 624,922"/>
    <path d="M262.2,866C256.19,858.87 240.12,818.48 240.12,818.48C240.12,818.48 276.89,858.87 280.2,866C283.51,873.13 268.21,873.13 262.2,866Z"/>
    <path d="M277,866C275.65,856.1 286,800 286,800C286,800 296.35,856.1 295,866C293.65,875.9 278.35,875.9 277,866Z"/>
    <path d="M291.8,866C295.11,858.87 331.88,818.48 331.88,818.48C331.88,818.48 315.81,858.87 309.8,866C303.79,873.13 288.49,873.13 291.8,866Z"/>
    <path d="M533.8,876C528.29,869.74 515.08,834.24 515.08,834.24C515.08,834.24 548.99,869.74 551.8,876C554.61,882.26 539.31,882.26 533.8,876Z"/>
    <path d="M547,876C545.65,867.3 556,818 556,818C556,818 566.35,867.3 565,876C563.65,884.7 548.35,884.7 547,876Z"/>
    <path d="M560.2,876C563.01,869.74 596.92,834.24 596.92,834.24C596.92,834.24 583.71,869.74 578.2,876C572.69,882.26 557.39,882.26 560.2,876Z"/>
    <path d="M125,884C119.87,878.38 108.8,846.56 108.8,846.56C108.8,846.56 140.57,878.38 143,884C145.43,889.62 130.13,889.62 125,884Z"/>
    <path d="M137,884C135.65,876.2 146,832 146,832C146,832 156.35,876.2 155,884C153.65,891.8 138.35,891.8 137,884Z"/>
    <path d="M149,884C151.43,878.38 183.2,846.56 183.2,846.56C183.2,846.56 172.13,878.38 167,884C161.87,889.62 146.57,889.62 149,884Z"/>
  </g>
  <g transform="translate(424,424) scale(0.94)">
    <g stroke-width="11.7">
    <path d="M-58,318C-70.9,324.9 -125.6,350.4 -152,348C-178.4,345.6 -217.2,322.1 -234,302C-250.8,281.9 -263.4,239.2 -264,214C-264.6,188.8 -249.7,149.3 -238,134C-226.3,118.7 -186,112 -186,112C-186,112 -173,165 -170,186C-167,207 -173.5,234.6 -166,252C-158.5,269.4 -135,294.5 -120,302C-105,309.5 -75.3,299.6 -66,302C-56.7,304.4 -45.1,311.1 -58,318Z"/>
    <path d="M-79.75,326.25 L-89.75,400.25 A28,28 0 0 0 -34.25,407.75 L-24.25,333.75 A28,28 0 0 0 -79.75,326.25 Z"/>
    <path d="M24.25,333.75 L34.25,407.75 A28,28 0 0 0 89.75,400.25 L79.75,326.25 A28,28 0 0 0 24.25,333.75 Z"/>
    <ellipse cx="-66" cy="418" rx="44" ry="26"/>
    <ellipse cx="66" cy="418" rx="44" ry="26"/>
    <path d="M82.74,211.18 L206.74,113.18 A27,27 0 0 0 173.26,70.82 L49.26,168.82 A27,27 0 0 0 82.74,211.18 Z"/>
    <path d="M-89.56,182.81 L-145.56,282.81 A27,27 0 0 0 -98.44,309.19 L-42.44,209.19 A27,27 0 0 0 -89.56,182.81 Z"/>
    <circle cx="198" cy="82" r="33"/>
    <circle cx="-128" cy="306" r="31"/>
    <path d="M0,116C27.6,116 75.8,148.6 92,172C108.2,195.4 108.6,245.6 108,272C107.4,298.4 104.2,333 88,348C71.8,363 26.4,372 0,372C-26.4,372 -71.8,363 -88,348C-104.2,333 -107.4,298.4 -108,272C-108.6,245.6 -108.2,195.4 -92,172C-75.8,148.6 -27.6,116 0,116Z"/>
  </g>
    <g stroke-width="6.38" fill="none">
    <path d="M-242,146C-236,152 -218,174.67 -206,182C-194,189.33 -176,188.67 -170,190"/>
    <path d="M0,178C18.6,178 52.7,206.2 62,226C71.3,245.8 71.3,292.9 62,310C52.7,327.1 18.6,340 0,340C-18.6,340 -52.7,327.1 -62,310C-71.3,292.9 -71.3,245.8 -62,226C-52.7,206.2 -18.6,178 0,178Z"/>
  </g>
    <g stroke-width="11.7">
    <path d="M0,-80C12.47,-80 44,-74 44,-74C44,-74 136,-156 136,-156C136,-156 126,-40 126,-40C126,-40 125.12,-9.32 122,4C118.88,17.32 112.5,41.53 104,54C95.5,66.47 76.73,84.35 62,92C47.27,99.65 17.57,108 0,108C-17.57,108 -47.27,99.65 -62,92C-76.73,84.35 -95.5,66.47 -104,54C-112.5,41.53 -118.88,17.32 -122,4C-125.12,-9.32 -126,-40 -126,-40C-126,-40 -136,-156 -136,-156C-136,-156 -44,-74 -44,-74C-44,-74 -12.47,-80 0,-80Z"/>
  </g>
    <g stroke-width="6.38">
    <path d="M56,-78C56,-78 116,-130 116,-130C116,-130 110,-58 110,-58C110,-58 56,-78 56,-78Z"/>
    <path d="M-56,-78C-56,-78 -116,-130 -116,-130C-116,-130 -110,-58 -110,-58C-110,-58 -56,-78 -56,-78Z"/>
  </g>
    <g stroke-width="8.51">
    <path d="M0,12C17.4,12 51.1,32.6 58,44C64.9,55.4 54.7,79.3 46,88C37.3,96.7 13.8,102 0,102C-13.8,102 -37.3,96.7 -46,88C-54.7,79.3 -64.9,55.4 -58,44C-51.1,32.6 -17.4,12 0,12Z"/>
  </g>
    <g fill="#000000" stroke="none">
    <circle cx="-52" cy="-14" r="14"/>
    <circle cx="52" cy="-14" r="14"/>
  </g>
    <g fill="#000000" stroke="none">
    <ellipse cx="0" cy="32" rx="17" ry="12"/>
  </g>
    <g stroke-width="6.38" fill="none">
    <line x1="0" y1="44" x2="0" y2="58"/>
    <path d="M-28,62C-25.67,64.33 -18.67,76.67 -14,76C-9.33,75.33 -2.33,61 0,58"/>
    <path d="M0,58C2.33,61 9.33,75.33 14,76C18.67,76.67 25.67,64.33 28,62"/>
  </g>
    <g stroke-width="8.51" fill="#ffffff">
    <path d="M-120,-58C-100,-65.67 -40,-104 0,-104C40,-104 100,-65.67 120,-58"/>
    <circle cx="-56" cy="-78" r="36"/>
    <circle cx="56" cy="-78" r="36"/>
    <line x1="-20" y1="-86" x2="20" y2="-86"/>
  </g>
    <g stroke-width="6.38" fill="none">
    <circle cx="-56" cy="-78" r="21"/>
    <circle cx="56" cy="-78" r="21"/>
  </g>
    <g stroke-width="11.7">
    <path d="M-96,120C-103.73,118.4 -137.73,127.87 -150,138C-162.27,148.13 -188,185.87 -188,196C-188,206.13 -158,217.73 -150,214C-142,210.27 -135.73,176.53 -128,168C-120.27,159.47 -96.27,156.4 -92,150C-87.73,143.6 -88.27,121.6 -96,120Z"/>
    <path d="M-96,108C-82.67,100.27 -25.6,92 0,92C25.6,92 82.67,100.27 96,108C109.33,115.73 112.8,146 100,150C87.2,154 26.67,138 0,138C-26.67,138 -87.2,154 -100,150C-112.8,146 -109.33,115.73 -96,108Z"/>
  </g>
    <g stroke-width="6.38" fill="none">
    <line x1="-52" y1="100" x2="-52" y2="143"/>
    <line x1="0" y1="94" x2="0" y2="139"/>
    <line x1="52" y1="100" x2="52" y2="143"/>
    <line x1="-140" y1="140" x2="-128" y2="178"/>
  </g>
  </g>
  </g>
</svg>
